<svg xmlns="http://www.w3.org/2000/svg" xmlns:xlink="http://www.w3.org/1999/xlink" width="500" zoomAndPan="magnify" viewBox="0 0 375 374.999991" height="500" preserveAspectRatio="xMidYMid meet" version="1.0"><defs><clipPath id="bae2e78ed7"><path d="M 57 37.5 L 318.648438 37.5 L 318.648438 300 L 57 300 Z M 57 37.5 " clip-rule="nonzero"/></clipPath><clipPath id="b77402d2d3"><path d="M 57 37.5 L 318.648438 37.5 L 318.648438 300 L 57 300 Z M 57 37.5 " clip-rule="nonzero"/></clipPath></defs><g clip-path="url(#bae2e78ed7)"><path fill="#1ba553" d="M 187.304688 37.738281 C 114.421875 37.984375 56.167969 97.269531 57.121094 170.175781 C 57.207031 177.515625 57.910156 184.792969 59.226562 192.015625 C 60.542969 199.234375 62.457031 206.292969 64.96875 213.1875 C 67.480469 220.085938 70.554688 226.71875 74.1875 233.097656 C 77.820312 239.472656 81.964844 245.496094 86.617188 251.171875 C 87.351562 252.070312 87.9375 253.058594 88.375 254.132812 C 88.8125 255.210938 89.078125 256.324219 89.179688 257.480469 C 89.28125 258.640625 89.210938 259.785156 88.96875 260.917969 C 88.722656 262.054688 88.320312 263.128906 87.753906 264.140625 L 76.496094 284.316406 C 73.378906 289.910156 78.460938 296.523438 84.667969 294.941406 L 122.785156 285.234375 C 124.113281 284.898438 125.460938 284.796875 126.824219 284.9375 C 128.191406 285.078125 129.488281 285.449219 130.722656 286.050781 C 139.152344 290.144531 147.917969 293.292969 157.027344 295.492188 C 166.136719 297.691406 175.375 298.894531 184.746094 299.09375 C 258.027344 300.75 318.175781 242.175781 318.402344 168.851562 C 318.628906 96.328125 259.804688 37.496094 187.304688 37.738281 Z M 187.757812 283.023438 C 185.882812 283.023438 184.007812 282.976562 182.136719 282.886719 C 180.261719 282.792969 178.394531 282.65625 176.527344 282.472656 C 174.664062 282.289062 172.804688 282.058594 170.949219 281.785156 C 169.09375 281.507812 167.246094 281.1875 165.410156 280.820312 C 163.570312 280.457031 161.742188 280.046875 159.921875 279.589844 C 158.105469 279.132812 156.296875 278.632812 154.503906 278.089844 C 152.710938 277.546875 150.929688 276.957031 149.167969 276.324219 C 147.402344 275.695312 145.652344 275.019531 143.921875 274.300781 C 142.1875 273.582031 140.476562 272.824219 138.78125 272.023438 C 137.085938 271.21875 135.410156 270.378906 133.757812 269.492188 C 132.105469 268.609375 130.472656 267.6875 128.867188 266.722656 C 127.257812 265.757812 125.675781 264.753906 124.117188 263.710938 C 122.558594 262.671875 121.027344 261.589844 119.519531 260.472656 C 118.015625 259.355469 116.535156 258.203125 115.085938 257.015625 C 113.636719 255.824219 112.21875 254.597656 110.828125 253.339844 C 109.441406 252.082031 108.082031 250.789062 106.757812 249.460938 C 105.433594 248.136719 104.140625 246.777344 102.882812 245.386719 C 101.621094 244 100.398438 242.578125 99.207031 241.128906 C 98.019531 239.679688 96.867188 238.203125 95.75 236.695312 C 94.632812 235.1875 93.554688 233.65625 92.511719 232.097656 C 91.472656 230.539062 90.46875 228.953125 89.503906 227.34375 C 88.539062 225.738281 87.617188 224.105469 86.734375 222.453125 C 85.847656 220.796875 85.007812 219.125 84.207031 217.429688 C 83.402344 215.734375 82.644531 214.019531 81.925781 212.285156 C 81.210938 210.554688 80.535156 208.804688 79.902344 207.039062 C 79.273438 205.273438 78.683594 203.492188 78.140625 201.699219 C 77.59375 199.902344 77.09375 198.097656 76.640625 196.277344 C 76.183594 194.457031 75.773438 192.628906 75.410156 190.789062 C 75.042969 188.949219 74.722656 187.101562 74.445312 185.246094 C 74.171875 183.394531 73.941406 181.53125 73.757812 179.664062 C 73.574219 177.800781 73.4375 175.929688 73.34375 174.054688 C 73.253906 172.183594 73.207031 170.308594 73.207031 168.433594 C 73.207031 105.148438 124.492188 53.84375 187.757812 53.84375 C 250.773438 53.84375 301.90625 104.75 302.304688 167.695312 C 302.703125 230.855469 250.894531 283.023438 187.757812 283.023438 Z M 187.757812 283.023438 " fill-opacity="1" fill-rule="nonzero"/></g><path fill="#ffffff" d="M 302.304688 168.433594 C 302.304688 170.308594 302.257812 172.183594 302.167969 174.054688 C 302.074219 175.929688 301.9375 177.800781 301.753906 179.664062 C 301.570312 181.53125 301.339844 183.390625 301.066406 185.246094 C 300.789062 187.101562 300.46875 188.949219 300.105469 190.789062 C 299.738281 192.628906 299.328125 194.457031 298.871094 196.277344 C 298.417969 198.097656 297.917969 199.902344 297.371094 201.695312 C 296.828125 203.492188 296.242188 205.273438 295.609375 207.039062 C 294.976562 208.804688 294.304688 210.550781 293.585938 212.285156 C 292.867188 214.019531 292.109375 215.730469 291.308594 217.425781 C 290.507812 219.121094 289.664062 220.796875 288.78125 222.449219 C 287.894531 224.105469 286.972656 225.734375 286.007812 227.34375 C 285.042969 228.953125 284.042969 230.535156 283 232.097656 C 281.957031 233.65625 280.878906 235.1875 279.761719 236.695312 C 278.644531 238.199219 277.492188 239.679688 276.304688 241.128906 C 275.113281 242.578125 273.890625 243.996094 272.632812 245.386719 C 271.371094 246.777344 270.082031 248.136719 268.753906 249.460938 C 267.429688 250.785156 266.070312 252.078125 264.683594 253.339844 C 263.292969 254.597656 261.875 255.824219 260.425781 257.011719 C 258.976562 258.203125 257.5 259.355469 255.992188 260.472656 C 254.488281 261.589844 252.957031 262.667969 251.394531 263.710938 C 249.835938 264.753906 248.253906 265.757812 246.644531 266.71875 C 245.039062 267.683594 243.40625 268.609375 241.753906 269.492188 C 240.101562 270.375 238.425781 271.21875 236.730469 272.023438 C 235.039062 272.824219 233.324219 273.582031 231.59375 274.300781 C 229.859375 275.019531 228.113281 275.691406 226.347656 276.324219 C 224.582031 276.957031 222.800781 277.546875 221.007812 278.089844 C 219.214844 278.632812 217.40625 279.132812 215.589844 279.589844 C 213.769531 280.046875 211.941406 280.457031 210.105469 280.820312 C 208.265625 281.1875 206.417969 281.507812 204.5625 281.785156 C 202.710938 282.058594 200.851562 282.289062 198.984375 282.472656 C 197.117188 282.65625 195.25 282.792969 193.378906 282.886719 C 191.503906 282.976562 189.632812 283.023438 187.757812 283.023438 C 185.882812 283.023438 184.007812 282.976562 182.136719 282.886719 C 180.261719 282.792969 178.394531 282.65625 176.527344 282.472656 C 174.664062 282.289062 172.804688 282.058594 170.949219 281.785156 C 169.09375 281.507812 167.246094 281.1875 165.410156 280.820312 C 163.570312 280.457031 161.742188 280.046875 159.921875 279.589844 C 158.105469 279.132812 156.296875 278.632812 154.503906 278.089844 C 152.710938 277.546875 150.929688 276.957031 149.164062 276.324219 C 147.402344 275.691406 145.652344 275.019531 143.921875 274.300781 C 142.1875 273.582031 140.476562 272.824219 138.78125 272.023438 C 137.085938 271.21875 135.410156 270.375 133.757812 269.492188 C 132.105469 268.609375 130.472656 267.683594 128.867188 266.71875 C 127.257812 265.757812 125.675781 264.753906 124.117188 263.710938 C 122.558594 262.667969 121.023438 261.589844 119.519531 260.472656 C 118.015625 259.355469 116.535156 258.203125 115.085938 257.011719 C 113.636719 255.824219 112.21875 254.597656 110.828125 253.339844 C 109.441406 252.078125 108.082031 250.785156 106.757812 249.460938 C 105.433594 248.136719 104.140625 246.777344 102.882812 245.386719 C 101.621094 243.996094 100.398438 242.578125 99.207031 241.128906 C 98.019531 239.679688 96.867188 238.199219 95.75 236.695312 C 94.632812 235.1875 93.554688 233.65625 92.511719 232.097656 C 91.472656 230.535156 90.46875 228.953125 89.503906 227.34375 C 88.539062 225.734375 87.617188 224.105469 86.734375 222.449219 C 85.847656 220.796875 85.007812 219.121094 84.207031 217.425781 C 83.402344 215.730469 82.644531 214.019531 81.925781 212.285156 C 81.210938 210.550781 80.535156 208.804688 79.902344 207.039062 C 79.273438 205.273438 78.683594 203.492188 78.140625 201.695312 C 77.59375 199.902344 77.09375 198.097656 76.640625 196.277344 C 76.183594 194.457031 75.773438 192.628906 75.410156 190.789062 C 75.042969 188.949219 74.722656 187.101562 74.445312 185.246094 C 74.171875 183.390625 73.941406 181.53125 73.757812 179.664062 C 73.574219 177.800781 73.4375 175.929688 73.34375 174.054688 C 73.253906 172.183594 73.207031 170.308594 73.207031 168.433594 C 73.207031 166.558594 73.253906 164.683594 73.34375 162.8125 C 73.4375 160.9375 73.574219 159.066406 73.757812 157.203125 C 73.941406 155.335938 74.171875 153.476562 74.445312 151.621094 C 74.722656 149.765625 75.042969 147.917969 75.410156 146.078125 C 75.773438 144.238281 76.183594 142.410156 76.640625 140.589844 C 77.09375 138.769531 77.59375 136.964844 78.140625 135.167969 C 78.683594 133.375 79.273438 131.59375 79.902344 129.828125 C 80.535156 128.0625 81.210938 126.3125 81.925781 124.582031 C 82.644531 122.847656 83.402344 121.136719 84.207031 119.441406 C 85.007812 117.746094 85.847656 116.070312 86.734375 114.417969 C 87.617188 112.761719 88.539062 111.132812 89.503906 109.523438 C 90.46875 107.914062 91.472656 106.328125 92.511719 104.769531 C 93.554688 103.210938 94.632812 101.679688 95.75 100.171875 C 96.867188 98.664062 98.019531 97.1875 99.207031 95.738281 C 100.398438 94.289062 101.621094 92.867188 102.882812 91.480469 C 104.140625 90.089844 105.433594 88.730469 106.757812 87.40625 C 108.082031 86.078125 109.441406 84.789062 110.828125 83.527344 C 112.21875 82.269531 113.636719 81.042969 115.085938 79.855469 C 116.535156 78.664062 118.015625 77.511719 119.519531 76.394531 C 121.023438 75.277344 122.558594 74.195312 124.117188 73.15625 C 125.675781 72.113281 127.257812 71.109375 128.867188 70.144531 C 130.472656 69.183594 132.105469 68.257812 133.757812 67.375 C 135.410156 66.488281 137.085938 65.648438 138.78125 64.84375 C 140.476562 64.042969 142.1875 63.285156 143.921875 62.566406 C 145.652344 61.847656 147.402344 61.171875 149.164062 60.542969 C 150.929688 59.910156 152.710938 59.320312 154.503906 58.777344 C 156.296875 58.234375 158.105469 57.734375 159.921875 57.277344 C 161.742188 56.820312 163.570312 56.410156 165.410156 56.046875 C 167.246094 55.679688 169.09375 55.359375 170.949219 55.082031 C 172.804688 54.808594 174.664062 54.578125 176.527344 54.394531 C 178.394531 54.210938 180.261719 54.074219 182.136719 53.980469 C 184.007812 53.890625 185.882812 53.84375 187.757812 53.84375 C 189.632812 53.84375 191.503906 53.890625 193.378906 53.980469 C 195.25 54.074219 197.117188 54.210938 198.984375 54.394531 C 200.851562 54.578125 202.710938 54.808594 204.5625 55.082031 C 206.417969 55.359375 208.265625 55.679688 210.105469 56.046875 C 211.941406 56.410156 213.769531 56.820312 215.589844 57.277344 C 217.40625 57.734375 219.214844 58.234375 221.007812 58.777344 C 222.800781 59.320312 224.582031 59.910156 226.347656 60.542969 C 228.113281 61.171875 229.859375 61.847656 231.59375 62.566406 C 233.324219 63.285156 235.039062 64.042969 236.730469 64.84375 C 238.425781 65.648438 240.101562 66.488281 241.753906 67.375 C 243.40625 68.257812 245.039062 69.183594 246.644531 70.144531 C 248.253906 71.109375 249.835938 72.113281 251.394531 73.15625 C 252.957031 74.195312 254.488281 75.277344 255.992188 76.394531 C 257.5 77.511719 258.976562 78.664062 260.425781 79.855469 C 261.875 81.042969 263.292969 82.269531 264.683594 83.527344 C 266.070312 84.789062 267.429688 86.078125 268.753906 87.40625 C 270.082031 88.730469 271.371094 90.089844 272.632812 91.480469 C 273.890625 92.867188 275.113281 94.289062 276.304688 95.738281 C 277.492188 97.1875 278.644531 98.664062 279.761719 100.171875 C 280.878906 101.679688 281.957031 103.210938 283 104.769531 C 284.042969 106.328125 285.042969 107.914062 286.007812 109.523438 C 286.972656 111.132812 287.894531 112.761719 288.78125 114.417969 C 289.664062 116.070312 290.507812 117.746094 291.308594 119.441406 C 292.109375 121.136719 292.867188 122.847656 293.585938 124.582031 C 294.304688 126.3125 294.976562 128.0625 295.609375 129.828125 C 296.242188 131.59375 296.828125 133.375 297.371094 135.167969 C 297.917969 136.964844 298.417969 138.769531 298.871094 140.589844 C 299.328125 142.410156 299.738281 144.238281 300.105469 146.078125 C 300.46875 147.917969 300.789062 149.765625 301.066406 151.621094 C 301.339844 153.476562 301.570312 155.335938 301.753906 157.203125 C 301.9375 159.066406 302.074219 160.9375 302.167969 162.8125 C 302.257812 164.683594 302.304688 166.558594 302.304688 168.433594 Z M 302.304688 168.433594 " fill-opacity="1" fill-rule="nonzero"/><path fill="#1ba553" d="M 167.285156 112.722656 L 167.335938 112.828125 L 174.167969 126.382812 C 174.535156 127.113281 174.84375 127.867188 175.089844 128.644531 C 175.332031 129.421875 175.515625 130.214844 175.632812 131.023438 C 175.75 131.832031 175.804688 132.644531 175.789062 133.460938 C 175.777344 134.277344 175.699219 135.085938 175.554688 135.890625 C 175.410156 136.695312 175.203125 137.480469 174.933594 138.25 C 174.664062 139.019531 174.332031 139.765625 173.941406 140.480469 C 173.550781 141.199219 173.105469 141.878906 172.605469 142.523438 C 172.105469 143.167969 171.554688 143.769531 170.957031 144.324219 C 170.363281 144.878906 169.816406 145.472656 169.316406 146.113281 C 168.820312 146.753906 168.375 147.429688 167.984375 148.140625 C 167.59375 148.851562 167.261719 149.589844 166.992188 150.355469 C 166.71875 151.121094 166.511719 151.902344 166.363281 152.699219 C 166.21875 153.5 166.136719 154.304688 166.121094 155.113281 C 166.101562 155.925781 166.152344 156.734375 166.261719 157.539062 C 166.375 158.339844 166.550781 159.132812 166.792969 159.90625 C 167.03125 160.683594 167.332031 161.433594 167.691406 162.160156 C 171.792969 170.398438 178.898438 181.753906 189.742188 189.949219 C 190.347656 190.40625 190.980469 190.820312 191.648438 191.183594 C 192.3125 191.546875 193.003906 191.859375 193.714844 192.121094 C 194.429688 192.382812 195.15625 192.585938 195.898438 192.738281 C 196.644531 192.890625 197.394531 192.988281 198.152344 193.027344 C 198.910156 193.066406 199.664062 193.050781 200.421875 192.976562 C 201.175781 192.902344 201.921875 192.773438 202.65625 192.585938 C 203.390625 192.402344 204.109375 192.164062 204.808594 191.871094 C 205.511719 191.578125 206.183594 191.234375 206.832031 190.84375 L 211.234375 188.164062 C 212.21875 187.5625 213.261719 187.082031 214.359375 186.71875 C 215.453125 186.355469 216.578125 186.121094 217.730469 186.015625 C 218.878906 185.910156 220.027344 185.933594 221.171875 186.089844 C 222.316406 186.246094 223.425781 186.53125 224.507812 186.941406 L 241.996094 193.59375 C 242.925781 193.945312 243.8125 194.386719 244.660156 194.917969 C 245.503906 195.445312 246.289062 196.054688 247.011719 196.738281 C 247.738281 197.421875 248.386719 198.167969 248.964844 198.980469 C 249.542969 199.792969 250.035156 200.652344 250.445312 201.5625 C 250.851562 202.472656 251.167969 203.410156 251.390625 204.382812 C 251.613281 205.355469 251.738281 206.335938 251.769531 207.332031 C 251.796875 208.328125 251.730469 209.320312 251.566406 210.300781 C 251.398438 211.285156 251.140625 212.242188 250.785156 213.171875 C 250.582031 213.707031 250.347656 214.230469 250.085938 214.738281 L 245.242188 224.132812 C 244.847656 224.894531 244.394531 225.617188 243.878906 226.300781 C 243.367188 226.984375 242.796875 227.617188 242.175781 228.207031 C 241.554688 228.792969 240.890625 229.324219 240.179688 229.796875 C 239.464844 230.273438 238.71875 230.683594 237.941406 231.035156 C 237.160156 231.382812 236.355469 231.664062 235.527344 231.875 C 234.699219 232.089844 233.859375 232.230469 233.007812 232.300781 C 232.152344 232.371094 231.300781 232.371094 230.449219 232.296875 C 229.597656 232.222656 228.757812 232.078125 227.929688 231.863281 C 200.464844 224.753906 135.003906 200.046875 129.730469 125.324219 C 129.675781 124.585938 129.679688 123.851562 129.734375 123.113281 C 129.789062 122.375 129.898438 121.644531 130.0625 120.925781 C 130.222656 120.203125 130.4375 119.496094 130.699219 118.808594 C 130.964844 118.117188 131.28125 117.449219 131.640625 116.804688 C 132.003906 116.160156 132.410156 115.546875 132.863281 114.960938 C 133.316406 114.378906 133.808594 113.828125 134.339844 113.316406 C 134.875 112.800781 135.441406 112.332031 136.042969 111.902344 C 136.640625 111.46875 137.273438 111.085938 137.929688 110.75 L 146.847656 106.164062 C 147.734375 105.707031 148.65625 105.34375 149.613281 105.070312 C 150.574219 104.796875 151.546875 104.617188 152.542969 104.535156 C 153.535156 104.453125 154.527344 104.46875 155.515625 104.582031 C 156.507812 104.695312 157.476562 104.90625 158.425781 105.210938 C 159.371094 105.515625 160.28125 105.910156 161.152344 106.394531 C 162.023438 106.875 162.839844 107.441406 163.601562 108.085938 C 164.359375 108.730469 165.050781 109.441406 165.671875 110.222656 C 166.289062 111.003906 166.828125 111.835938 167.285156 112.722656 Z M 167.285156 112.722656 " fill-opacity="1" fill-rule="nonzero"/><g clip-path="url(#b77402d2d3)"><path fill="#1ba553" d="M 187.304688 37.738281 C 114.421875 37.984375 56.167969 97.269531 57.121094 170.175781 C 57.207031 177.515625 57.910156 184.792969 59.226562 192.015625 C 60.542969 199.234375 62.457031 206.292969 64.96875 213.1875 C 67.480469 220.085938 70.554688 226.71875 74.1875 233.097656 C 77.820312 239.472656 81.964844 245.496094 86.617188 251.171875 C 87.351562 252.070312 87.9375 253.058594 88.375 254.132812 C 88.8125 255.210938 89.078125 256.324219 89.179688 257.480469 C 89.28125 258.640625 89.210938 259.785156 88.96875 260.917969 C 88.722656 262.054688 88.320312 263.128906 87.753906 264.140625 L 76.496094 284.316406 C 73.378906 289.910156 78.460938 296.523438 84.667969 294.941406 L 122.785156 285.234375 C 124.113281 284.898438 125.460938 284.796875 126.824219 284.9375 C 128.191406 285.078125 129.488281 285.449219 130.722656 286.050781 C 139.152344 290.144531 147.917969 293.292969 157.027344 295.492188 C 166.136719 297.691406 175.375 298.894531 184.746094 299.09375 C 258.027344 300.75 318.175781 242.175781 318.402344 168.851562 C 318.628906 96.328125 259.804688 37.496094 187.304688 37.738281 Z M 187.757812 283.023438 C 185.882812 283.023438 184.007812 282.976562 182.136719 282.886719 C 180.261719 282.792969 178.394531 282.65625 176.527344 282.472656 C 174.664062 282.289062 172.804688 282.058594 170.949219 281.785156 C 169.09375 281.507812 167.246094 281.1875 165.410156 280.820312 C 163.570312 280.457031 161.742188 280.046875 159.921875 279.589844 C 158.105469 279.132812 156.296875 278.632812 154.503906 278.089844 C 152.710938 277.546875 150.929688 276.957031 149.167969 276.324219 C 147.402344 275.695312 145.652344 275.019531 143.921875 274.300781 C 142.1875 273.582031 140.476562 272.824219 138.78125 272.023438 C 137.085938 271.21875 135.410156 270.378906 133.757812 269.492188 C 132.105469 268.609375 130.472656 267.6875 128.867188 266.722656 C 127.257812 265.757812 125.675781 264.753906 124.117188 263.710938 C 122.558594 262.671875 121.027344 261.589844 119.519531 260.472656 C 118.015625 259.355469 116.535156 258.203125 115.085938 257.015625 C 113.636719 255.824219 112.21875 254.597656 110.828125 253.339844 C 109.441406 252.082031 108.082031 250.789062 106.757812 249.460938 C 105.433594 248.136719 104.140625 246.777344 102.882812 245.386719 C 101.621094 244 100.398438 242.578125 99.207031 241.128906 C 98.019531 239.679688 96.867188 238.203125 95.75 236.695312 C 94.632812 235.1875 93.554688 233.65625 92.511719 232.097656 C 91.472656 230.539062 90.46875 228.953125 89.503906 227.34375 C 88.539062 225.738281 87.617188 224.105469 86.734375 222.453125 C 85.847656 220.796875 85.007812 219.125 84.207031 217.429688 C 83.402344 215.734375 82.644531 214.019531 81.925781 212.285156 C 81.210938 210.554688 80.535156 208.804688 79.902344 207.039062 C 79.273438 205.273438 78.683594 203.492188 78.140625 201.699219 C 77.59375 199.902344 77.09375 198.097656 76.640625 196.277344 C 76.183594 194.457031 75.773438 192.628906 75.410156 190.789062 C 75.042969 188.949219 74.722656 187.101562 74.445312 185.246094 C 74.171875 183.394531 73.941406 181.53125 73.757812 179.664062 C 73.574219 177.800781 73.4375 175.929688 73.34375 174.054688 C 73.253906 172.183594 73.207031 170.308594 73.207031 168.433594 C 73.207031 105.148438 124.492188 53.84375 187.757812 53.84375 C 250.773438 53.84375 301.90625 104.75 302.304688 167.695312 C 302.703125 230.855469 250.894531 283.023438 187.757812 283.023438 Z M 187.757812 283.023438 " fill-opacity="1" fill-rule="nonzero"/></g><path fill="#ffffff" d="M 302.304688 168.433594 C 302.304688 170.308594 302.257812 172.183594 302.167969 174.054688 C 302.074219 175.929688 301.9375 177.800781 301.753906 179.664062 C 301.570312 181.53125 301.339844 183.390625 301.066406 185.246094 C 300.789062 187.101562 300.46875 188.949219 300.105469 190.789062 C 299.738281 192.628906 299.328125 194.457031 298.871094 196.277344 C 298.417969 198.097656 297.917969 199.902344 297.371094 201.695312 C 296.828125 203.492188 296.242188 205.273438 295.609375 207.039062 C 294.976562 208.804688 294.304688 210.550781 293.585938 212.285156 C 292.867188 214.019531 292.109375 215.730469 291.308594 217.425781 C 290.507812 219.121094 289.664062 220.796875 288.78125 222.449219 C 287.894531 224.105469 286.972656 225.734375 286.007812 227.34375 C 285.042969 228.953125 284.042969 230.535156 283 232.097656 C 281.957031 233.65625 280.878906 235.1875 279.761719 236.695312 C 278.644531 238.199219 277.492188 239.679688 276.304688 241.128906 C 275.113281 242.578125 273.890625 243.996094 272.632812 245.386719 C 271.371094 246.777344 270.082031 248.136719 268.753906 249.460938 C 267.429688 250.785156 266.070312 252.078125 264.683594 253.339844 C 263.292969 254.597656 261.875 255.824219 260.425781 257.011719 C 258.976562 258.203125 257.5 259.355469 255.992188 260.472656 C 254.488281 261.589844 252.957031 262.667969 251.394531 263.710938 C 249.835938 264.753906 248.253906 265.757812 246.644531 266.71875 C 245.039062 267.683594 243.40625 268.609375 241.753906 269.492188 C 240.101562 270.375 238.425781 271.21875 236.730469 272.023438 C 235.039062 272.824219 233.324219 273.582031 231.59375 274.300781 C 229.859375 275.019531 228.113281 275.691406 226.347656 276.324219 C 224.582031 276.957031 222.800781 277.546875 221.007812 278.089844 C 219.214844 278.632812 217.40625 279.132812 215.589844 279.589844 C 213.769531 280.046875 211.941406 280.457031 210.105469 280.820312 C 208.265625 281.1875 206.417969 281.507812 204.5625 281.785156 C 202.710938 282.058594 200.851562 282.289062 198.984375 282.472656 C 197.117188 282.65625 195.25 282.792969 193.378906 282.886719 C 191.503906 282.976562 189.632812 283.023438 187.757812 283.023438 C 185.882812 283.023438 184.007812 282.976562 182.136719 282.886719 C 180.261719 282.792969 178.394531 282.65625 176.527344 282.472656 C 174.664062 282.289062 172.804688 282.058594 170.949219 281.785156 C 169.09375 281.507812 167.246094 281.1875 165.410156 280.820312 C 163.570312 280.457031 161.742188 280.046875 159.921875 279.589844 C 158.105469 279.132812 156.296875 278.632812 154.503906 278.089844 C 152.710938 277.546875 150.929688 276.957031 149.164062 276.324219 C 147.402344 275.691406 145.652344 275.019531 143.921875 274.300781 C 142.1875 273.582031 140.476562 272.824219 138.78125 272.023438 C 137.085938 271.21875 135.410156 270.375 133.757812 269.492188 C 132.105469 268.609375 130.472656 267.683594 128.867188 266.71875 C 127.257812 265.757812 125.675781 264.753906 124.117188 263.710938 C 122.558594 262.667969 121.023438 261.589844 119.519531 260.472656 C 118.015625 259.355469 116.535156 258.203125 115.085938 257.011719 C 113.636719 255.824219 112.21875 254.597656 110.828125 253.339844 C 109.441406 252.078125 108.082031 250.785156 106.757812 249.460938 C 105.433594 248.136719 104.140625 246.777344 102.882812 245.386719 C 101.621094 243.996094 100.398438 242.578125 99.207031 241.128906 C 98.019531 239.679688 96.867188 238.199219 95.75 236.695312 C 94.632812 235.1875 93.554688 233.65625 92.511719 232.097656 C 91.472656 230.535156 90.46875 228.953125 89.503906 227.34375 C 88.539062 225.734375 87.617188 224.105469 86.734375 222.449219 C 85.847656 220.796875 85.007812 219.121094 84.207031 217.425781 C 83.402344 215.730469 82.644531 214.019531 81.925781 212.285156 C 81.210938 210.550781 80.535156 208.804688 79.902344 207.039062 C 79.273438 205.273438 78.683594 203.492188 78.140625 201.695312 C 77.59375 199.902344 77.09375 198.097656 76.640625 196.277344 C 76.183594 194.457031 75.773438 192.628906 75.410156 190.789062 C 75.042969 188.949219 74.722656 187.101562 74.445312 185.246094 C 74.171875 183.390625 73.941406 181.53125 73.757812 179.664062 C 73.574219 177.800781 73.4375 175.929688 73.34375 174.054688 C 73.253906 172.183594 73.207031 170.308594 73.207031 168.433594 C 73.207031 166.558594 73.253906 164.683594 73.34375 162.8125 C 73.4375 160.9375 73.574219 159.066406 73.757812 157.203125 C 73.941406 155.335938 74.171875 153.476562 74.445312 151.621094 C 74.722656 149.765625 75.042969 147.917969 75.410156 146.078125 C 75.773438 144.238281 76.183594 142.410156 76.640625 140.589844 C 77.09375 138.769531 77.59375 136.964844 78.140625 135.167969 C 78.683594 133.375 79.273438 131.59375 79.902344 129.828125 C 80.535156 128.0625 81.210938 126.3125 81.925781 124.582031 C 82.644531 122.847656 83.402344 121.136719 84.207031 119.441406 C 85.007812 117.746094 85.847656 116.070312 86.734375 114.417969 C 87.617188 112.761719 88.539062 111.132812 89.503906 109.523438 C 90.46875 107.914062 91.472656 106.328125 92.511719 104.769531 C 93.554688 103.210938 94.632812 101.679688 95.75 100.171875 C 96.867188 98.664062 98.019531 97.1875 99.207031 95.738281 C 100.398438 94.289062 101.621094 92.867188 102.882812 91.480469 C 104.140625 90.089844 105.433594 88.730469 106.757812 87.40625 C 108.082031 86.078125 109.441406 84.789062 110.828125 83.527344 C 112.21875 82.269531 113.636719 81.042969 115.085938 79.855469 C 116.535156 78.664062 118.015625 77.511719 119.519531 76.394531 C 121.023438 75.277344 122.558594 74.195312 124.117188 73.15625 C 125.675781 72.113281 127.257812 71.109375 128.867188 70.144531 C 130.472656 69.183594 132.105469 68.257812 133.757812 67.375 C 135.410156 66.488281 137.085938 65.648438 138.78125 64.84375 C 140.476562 64.042969 142.1875 63.285156 143.921875 62.566406 C 145.652344 61.847656 147.402344 61.171875 149.164062 60.542969 C 150.929688 59.910156 152.710938 59.320312 154.503906 58.777344 C 156.296875 58.234375 158.105469 57.734375 159.921875 57.277344 C 161.742188 56.820312 163.570312 56.410156 165.410156 56.046875 C 167.246094 55.679688 169.09375 55.359375 170.949219 55.082031 C 172.804688 54.808594 174.664062 54.578125 176.527344 54.394531 C 178.394531 54.210938 180.261719 54.074219 182.136719 53.980469 C 184.007812 53.890625 185.882812 53.84375 187.757812 53.84375 C 189.632812 53.84375 191.503906 53.890625 193.378906 53.980469 C 195.25 54.074219 197.117188 54.210938 198.984375 54.394531 C 200.851562 54.578125 202.710938 54.808594 204.5625 55.082031 C 206.417969 55.359375 208.265625 55.679688 210.105469 56.046875 C 211.941406 56.410156 213.769531 56.820312 215.589844 57.277344 C 217.40625 57.734375 219.214844 58.234375 221.007812 58.777344 C 222.800781 59.320312 224.582031 59.910156 226.347656 60.542969 C 228.113281 61.171875 229.859375 61.847656 231.59375 62.566406 C 233.324219 63.285156 235.039062 64.042969 236.730469 64.84375 C 238.425781 65.648438 240.101562 66.488281 241.753906 67.375 C 243.40625 68.257812 245.039062 69.183594 246.644531 70.144531 C 248.253906 71.109375 249.835938 72.113281 251.394531 73.15625 C 252.957031 74.195312 254.488281 75.277344 255.992188 76.394531 C 257.5 77.511719 258.976562 78.664062 260.425781 79.855469 C 261.875 81.042969 263.292969 82.269531 264.683594 83.527344 C 266.070312 84.789062 267.429688 86.078125 268.753906 87.40625 C 270.082031 88.730469 271.371094 90.089844 272.632812 91.480469 C 273.890625 92.867188 275.113281 94.289062 276.304688 95.738281 C 277.492188 97.1875 278.644531 98.664062 279.761719 100.171875 C 280.878906 101.679688 281.957031 103.210938 283 104.769531 C 284.042969 106.328125 285.042969 107.914062 286.007812 109.523438 C 286.972656 111.132812 287.894531 112.761719 288.78125 114.417969 C 289.664062 116.070312 290.507812 117.746094 291.308594 119.441406 C 292.109375 121.136719 292.867188 122.847656 293.585938 124.582031 C 294.304688 126.3125 294.976562 128.0625 295.609375 129.828125 C 296.242188 131.59375 296.828125 133.375 297.371094 135.167969 C 297.917969 136.964844 298.417969 138.769531 298.871094 140.589844 C 299.328125 142.410156 299.738281 144.238281 300.105469 146.078125 C 300.46875 147.917969 300.789062 149.765625 301.066406 151.621094 C 301.339844 153.476562 301.570312 155.335938 301.753906 157.203125 C 301.9375 159.066406 302.074219 160.9375 302.167969 162.8125 C 302.257812 164.683594 302.304688 166.558594 302.304688 168.433594 Z M 302.304688 168.433594 " fill-opacity="1" fill-rule="nonzero"/><path fill="#1ba553" d="M 167.285156 112.722656 L 167.335938 112.828125 L 174.167969 126.382812 C 174.535156 127.113281 174.84375 127.867188 175.089844 128.644531 C 175.332031 129.421875 175.515625 130.214844 175.632812 131.023438 C 175.75 131.832031 175.804688 132.644531 175.789062 133.460938 C 175.777344 134.277344 175.699219 135.085938 175.554688 135.890625 C 175.410156 136.695312 175.203125 137.480469 174.933594 138.25 C 174.664062 139.019531 174.332031 139.765625 173.941406 140.480469 C 173.550781 141.199219 173.105469 141.878906 172.605469 142.523438 C 172.105469 143.167969 171.554688 143.769531 170.957031 144.324219 C 170.363281 144.878906 169.816406 145.472656 169.316406 146.113281 C 168.820312 146.753906 168.375 147.429688 167.984375 148.140625 C 167.59375 148.851562 167.261719 149.589844 166.992188 150.355469 C 166.71875 151.121094 166.511719 151.902344 166.363281 152.699219 C 166.21875 153.5 166.136719 154.304688 166.121094 155.113281 C 166.101562 155.925781 166.152344 156.734375 166.261719 157.539062 C 166.375 158.339844 166.550781 159.132812 166.792969 159.90625 C 167.03125 160.683594 167.332031 161.433594 167.691406 162.160156 C 171.792969 170.398438 178.898438 181.753906 189.742188 189.949219 C 190.347656 190.40625 190.980469 190.820312 191.648438 191.183594 C 192.3125 191.546875 193.003906 191.859375 193.714844 192.121094 C 194.429688 192.382812 195.15625 192.585938 195.898438 192.738281 C 196.644531 192.890625 197.394531 192.988281 198.152344 193.027344 C 198.910156 193.066406 199.664062 193.050781 200.421875 192.976562 C 201.175781 192.902344 201.921875 192.773438 202.65625 192.585938 C 203.390625 192.402344 204.109375 192.164062 204.808594 191.871094 C 205.511719 191.578125 206.183594 191.234375 206.832031 190.84375 L 211.234375 188.164062 C 212.21875 187.5625 213.261719 187.082031 214.359375 186.71875 C 215.453125 186.355469 216.578125 186.121094 217.730469 186.015625 C 218.878906 185.910156 220.027344 185.933594 221.171875 186.089844 C 222.316406 186.246094 223.425781 186.53125 224.507812 186.941406 L 241.996094 193.59375 C 242.925781 193.945312 243.8125 194.386719 244.660156 194.917969 C 245.503906 195.445312 246.289062 196.054688 247.011719 196.738281 C 247.738281 197.421875 248.386719 198.167969 248.964844 198.980469 C 249.542969 199.792969 250.035156 200.652344 250.445312 201.5625 C 250.851562 202.472656 251.167969 203.410156 251.390625 204.382812 C 251.613281 205.355469 251.738281 206.335938 251.769531 207.332031 C 251.796875 208.328125 251.730469 209.320312 251.566406 210.300781 C 251.398438 211.285156 251.140625 212.242188 250.785156 213.171875 C 250.582031 213.707031 250.347656 214.230469 250.085938 214.738281 L 245.242188 224.132812 C 244.847656 224.894531 244.394531 225.617188 243.878906 226.300781 C 243.367188 226.984375 242.796875 227.617188 242.175781 228.207031 C 241.554688 228.792969 240.890625 229.324219 240.179688 229.796875 C 239.464844 230.273438 238.71875 230.683594 237.941406 231.035156 C 237.160156 231.382812 236.355469 231.664062 235.527344 231.875 C 234.699219 232.089844 233.859375 232.230469 233.007812 232.300781 C 232.152344 232.371094 231.300781 232.371094 230.449219 232.296875 C 229.597656 232.222656 228.757812 232.078125 227.929688 231.863281 C 200.464844 224.753906 135.003906 200.046875 129.730469 125.324219 C 129.675781 124.585938 129.679688 123.851562 129.734375 123.113281 C 129.789062 122.375 129.898438 121.644531 130.0625 120.925781 C 130.222656 120.203125 130.4375 119.496094 130.699219 118.808594 C 130.964844 118.117188 131.28125 117.449219 131.640625 116.804688 C 132.003906 116.160156 132.410156 115.546875 132.863281 114.960938 C 133.316406 114.378906 133.808594 113.828125 134.339844 113.316406 C 134.875 112.800781 135.441406 112.332031 136.042969 111.902344 C 136.640625 111.46875 137.273438 111.085938 137.929688 110.75 L 146.847656 106.164062 C 147.734375 105.707031 148.65625 105.34375 149.613281 105.070312 C 150.574219 104.796875 151.546875 104.617188 152.542969 104.535156 C 153.535156 104.453125 154.527344 104.46875 155.515625 104.582031 C 156.507812 104.695312 157.476562 104.90625 158.425781 105.210938 C 159.371094 105.515625 160.28125 105.910156 161.152344 106.394531 C 162.023438 106.875 162.839844 107.441406 163.601562 108.085938 C 164.359375 108.730469 165.050781 109.441406 165.671875 110.222656 C 166.289062 111.003906 166.828125 111.835938 167.285156 112.722656 Z M 167.285156 112.722656 " fill-opacity="1" fill-rule="nonzero"/></svg>